<svg width="27" height="25" viewBox="0 0 27 25" fill="none" xmlns="http://www.w3.org/2000/svg">
<path fill-rule="evenodd" clip-rule="evenodd" d="M24.0713 24.3243C24.6463 22.4635 19.3268 16.5037 15.6072 15.4249C11.0965 16.1978 13.046 22.8154 15.1682 18.6225C15.1682 18.6225 15.5532 20.8749 14.7285 21.5948C11.6343 24.2959 9.80392 16.0918 12.3103 15.4249C11.8708 14.0675 7.80392 16.9486 7.80392 16.9486L3.03842 13.9146L0 11.7229L3.03842 9.5728L7.80392 6.12031C7.80392 6.12031 10.8209 7.9847 12.3103 7.03374C9.70875 5.00301 11.4311 0.429208 14.7285 1.04621C18.026 1.66321 15.1682 4.19556 15.1682 4.19556C15.586 2.95835 14.7157 2.69276 14.0684 2.83817C12.9699 3.08497 11.8049 5.08249 15.2781 7.03374C18.9486 6.08888 20.8623 4.46005 24.0713 0C24.0034 2.84919 23.3248 4.20736 20.8837 6.16994C22.3981 8.69176 23.5212 10.6878 26.831 11.7229C24.1412 13.0293 22.5219 13.2027 20.8837 16.1639C25.3692 18.5968 25.3909 21.3628 24.0713 24.3243ZM3.03842 11.7229L7.80392 14.3143C7.80392 14.3143 9.62702 12.7884 10.9914 12.3399C12.5986 11.8116 15.2781 12.2165 15.2781 12.2165C17.3518 14.7809 19.8945 15.3269 19.8945 15.3269C19.8945 13.4505 17.0532 11.7229 17.0532 11.7229C17.0532 11.7229 19.8945 9.83435 19.8945 7.37576C18.8234 7.91778 17.6945 8.39324 15.2781 10.2421C15.2781 10.2421 12.626 10.648 10.9914 10.2421C9.67606 9.91549 7.80392 8.76132 7.80392 8.76132L3.03842 11.7229ZM21.5432 9.83435C20.6264 9.86775 19.8642 10.7347 19.8945 11.7229C19.9249 12.7111 20.6652 13.4187 21.5432 13.4505C22.4532 13.4834 23.2666 12.7467 23.3019 11.7229C23.3394 10.6312 22.4906 9.79984 21.5432 9.83435Z" fill="white"/>
</svg>
