<svg width="27" height="25" viewBox="0 0 27 25" fill="none" xmlns="http://www.w3.org/2000/svg">
<path fill-rule="evenodd" clip-rule="evenodd" d="M2.92875 24.3243C2.35369 22.4635 7.67319 16.5037 11.3928 15.4249C15.9035 16.1978 13.954 22.8154 11.8318 18.6225C11.8318 18.6225 11.4468 20.8749 12.2715 21.5948C15.3657 24.2959 17.1961 16.0918 14.6897 15.4249C15.1292 14.0675 19.1961 16.9486 19.1961 16.9486L23.9616 13.9146L27 11.7229L23.9616 9.5728L19.1961 6.12031C19.1961 6.12031 16.1791 7.9847 14.6897 7.03374C17.2912 5.00301 15.5689 0.429208 12.2715 1.04621C8.97404 1.66321 11.8318 4.19556 11.8318 4.19556C11.414 2.95835 12.2843 2.69276 12.9316 2.83817C14.0301 3.08497 15.1951 5.08249 11.7219 7.03374C8.05139 6.08888 6.13769 4.46005 2.92875 0C2.99663 2.84919 3.67524 4.20736 6.11627 6.16994C4.6019 8.69176 3.4788 10.6878 0.169022 11.7229C2.85884 13.0293 4.47814 13.2027 6.11627 16.1639C1.63083 18.5968 1.60912 21.3628 2.92875 24.3243ZM23.9616 11.7229L19.1961 14.3143C19.1961 14.3143 17.373 12.7884 16.0086 12.3399C14.4014 11.8116 11.7219 12.2165 11.7219 12.2165C9.64816 14.7809 7.1055 15.3269 7.1055 15.3269C7.1055 13.4505 9.9468 11.7229 9.9468 11.7229C9.9468 11.7229 7.1055 9.83435 7.1055 7.37576C8.17665 7.91778 9.30552 8.39324 11.7219 10.2421C11.7219 10.2421 14.374 10.648 16.0086 10.2421C17.3239 9.91549 19.1961 8.76132 19.1961 8.76132L23.9616 11.7229ZM5.45679 9.83435C6.3736 9.86775 7.13585 10.7347 7.1055 11.7229C7.07515 12.7111 6.33483 13.4187 5.45679 13.4505C4.54683 13.4834 3.73339 12.7467 3.69815 11.7229C3.66058 10.6312 4.50936 9.79984 5.45679 9.83435Z" fill="white"/>
</svg>
