<svg width="191" height="48" viewBox="0 0 191 48" fill="none" xmlns="http://www.w3.org/2000/svg">
<path d="M5.65706 44.1312C3.58461 44.2841 4.31009 41.4421 4.31009 41.4421C3.72761 40.3381 -1.34697 45.8609 4.57969 47.8285C9.76104 49.5487 11.9235 37.923 5.38787 31.0222C10.8787 31.0383 9.69817 25.9803 6.73484 24.9719C7.81646 27.9487 7.26873 28.486 4.84908 27.997C4.54888 17.2403 8.26912 13.998 21.0127 12.5352C18.461 10.1675 15.7224 10.8383 10.5063 12.5352C17.8126 8.05723 22.5457 7.1012 32.5966 9.51001C29.803 6.13426 27.254 6.02191 22.8984 5.4765C36.9069 3.43643 51.7236 17.9132 62.4993 7.15714L188.037 6.48486L191 5.47648L77.3159 4.4681C73.0339 1.97197 70.2564 2.42781 65.4626 2.45136C59.8857 6.92305 56.5181 7.69585 50.3766 8.1655C53.6093 -1.58219 45.7969 0.434571 46.0663 4.4681C49.299 1.44295 50.1072 5.4765 46.0663 7.15714C16.433 -6.28798 8.08181 2.1152 2.96333 8.83777C8.1705 6.40765 11.4242 5.51727 15.6248 5.4765C10.2162 10.2919 6.99338 12.4546 0 12.5352C1.51615 15.2157 3.18206 15.0772 6.46544 14.2158C3.88806 17.4922 2.9007 19.6925 2.42454 24.6358C2.42454 33.7112 8.88999 39.7615 5.65706 44.1312Z" fill="#FFFEFF"/>
</svg>
