<svg width="483" height="191" viewBox="0 0 483 191" fill="none" xmlns="http://www.w3.org/2000/svg">
<g filter="url(#filter0_dd)">
<path d="M388.837 57.1322H387.438C386.579 48.5925 383.803 46.8432 378.108 45.5991C376.152 45.1717 374.914 45.0921 372.977 45.5991C357.116 49.7512 358.982 93.5772 377.641 95.8838H379.973C379.973 95.8838 383.705 95.4225 383.706 94.0384C383.712 88.0413 383.706 74.9243 383.706 74.9243C383.706 72.356 383.706 72.356 382.307 72.356H379.974V70.9721H392.102V72.356H390.703C388.837 72.356 388.837 72.356 388.837 74.9243C388.925 75.0075 388.994 91.4195 388.837 94.961C388.796 95.8828 384.736 98.6277 380.907 99.5743C379.041 100.036 375.989 100.286 372.977 99.5743C347.808 93.6282 351.95 44.4969 372.977 42.3698C375.696 42.0948 377.253 42.1259 379.974 42.3698C383.497 42.6856 385.238 43.1943 388.837 44.2151V57.1322Z" fill="#F2F2F2"/>
<path d="M412.158 99.1133H399.097V97.7293C401.021 97.913 401.568 97.4579 401.896 95.884L402.362 46.9835C401.033 44.6552 399.943 45.1305 398.164 45.1382V43.2928H410.759V45.1382C408.704 44.994 407.877 45.1853 407.96 46.9835V66.8205H426.152V46.9835C425.535 45.1475 424.459 45.0868 422.42 45.1382V43.2928H435.015V45.1382C432.972 45.1051 432.166 45.295 432.216 46.5221V95.884C433.063 97.5973 433.931 97.892 435.948 97.7293V99.1133H423.353V97.7293C425.092 97.7941 425.882 97.6206 426.152 95.884V70.5111H407.96V95.884C408.748 97.2562 409.633 97.6861 412.158 97.7293V99.1133Z" fill="#F2F2F2"/>
<path d="M339.391 98.652H351.985V96.8067H350.119C348.576 97.0155 348.166 96.4637 347.787 94.9614V46.0608C347.787 44.6768 347.787 44.6768 349.186 44.6768H350.586V43.2928H339.391V44.6768H341.256C342.189 44.6768 342.189 44.6768 342.189 46.0608V94.9614C342.189 97.268 342.189 97.268 340.79 97.268H339.391V98.652Z" fill="#F2F2F2"/>
<path d="M449.477 98.6519H462.071V96.8066H460.206C458.662 97.0155 458.252 96.4636 457.873 94.9613V46.9834H464.87C465.803 46.9834 468.135 47.906 468.135 53.4419H469.535V42.8314H468.135V43.2928H460.672H449.477H443.879C442.946 43.2928 442.013 43.2928 442.013 42.3701H440.614C440.614 42.3701 439.537 48.0501 439.681 52.9806C440.228 52.9806 440.534 52.9806 441.081 52.9806C441.081 49.7513 442.014 46.9834 443.879 46.9834H452.276V94.9613C452.276 97.2679 452.276 97.2679 450.876 97.2679H449.477V98.6519Z" fill="#F2F2F2"/>
<path d="M261.025 97.2683V98.6523H274.086V97.7292C270.426 97.6836 269.655 97.241 269.888 95.8844V72.8176H270.467C277.818 84.3507 277.661 89.584 288.08 98.6518H307.205V97.2683H305.339C303.264 97.0327 303.038 96.438 302.541 95.4226L302.074 56.6712H302.541L327.263 97.7292C328.736 99.4155 330.062 100.497 330.062 98.6518V46.9833C330.062 45.5994 330.062 44.6767 331.461 44.6767H333.327V43.2932H322.132V44.6767H324.464C325.864 44.6767 326.33 45.138 326.33 46.9833L326.797 85.7347H326.33L301.608 43.2932C300.208 40.9861 298.809 40.9861 298.809 43.2932V95.8844C298.756 97.42 298.342 97.2683 297.41 97.2683H294.611C284.815 89.8871 281.55 79.2766 273.471 67.1638C279.729 57.9892 282.189 52.5069 288.547 44.6772H291.346V43.2932H281.55V44.2158C282.059 44.4342 282.311 44.5812 282.483 45.1385V47.4451L270.467 67.1638H269.888V46.9838C269.774 45.4118 270.113 45.033 271.754 45.1385H273.153V43.2932H261.025V45.1385H263.358C264.274 45.2412 264.689 45.612 264.757 46.9838V95.8844C264.6 96.6979 264.418 97.0766 263.358 97.2683H261.025Z" fill="#F2F2F2"/>
<path d="M188.723 43.2928V44.6768H191.055C192.516 45.9132 192.372 46.6166 192.454 46.9835C197.119 67.7431 201.784 100.036 203.183 100.036H204.582C209.653 87.3691 210.306 74.52 214.378 58.5166H215.311L224.64 99.5746C225.188 99.8106 225.495 99.7816 226.04 99.5746C232.957 74.5858 235.927 48.7687 239.101 44.6768H241.433V43.2928H230.704V44.6768H232.104C233.031 45.1239 233.317 45.5543 233.503 46.5221L226.506 85.7348H226.04L216.71 43.2928H215.311L205.515 85.2735H205.049C202.326 69.91 198.524 47.8962 198.518 46.5221C198.513 45.1481 198.545 44.7763 199.451 44.6768H200.851V43.2928H188.723Z" fill="#F2F2F2"/>
<path d="M24.9939 98.6519H11.9329V97.2679C13.8566 97.4516 14.4043 96.9965 14.7317 95.4226L15.1982 46.522C13.8686 44.1938 12.7792 44.6691 11 44.6767V42.8314H23.5945V44.6767C21.5403 44.5325 20.7131 44.7238 20.7957 46.522V66.359H38.9878V46.522C38.3709 44.6861 37.2947 44.6254 35.2561 44.6767V42.8314H47.8506V44.6767C45.8083 44.6437 45.0017 44.8336 45.0518 46.0607V95.4226C45.8987 97.1359 46.7666 97.4306 48.7835 97.2679V98.6519H36.189V97.2679C37.9279 97.3327 38.7176 97.1591 38.9878 95.4226V70.0497H20.7957V95.4226C21.5837 96.7948 22.469 97.2246 24.9939 97.2679V98.6519Z" fill="#F2F2F2"/>
<path fill-rule="evenodd" clip-rule="evenodd" d="M66.9777 99.1128C71.6423 100.958 75.3093 99.8883 77.709 98.6514C97.883 88.2528 94.8744 45.0319 75.8405 42.3698C73.6734 42.0667 72.4311 41.6722 70.2555 41.9083C51.743 43.917 45.6495 86.6627 66.9777 99.1128ZM72.114 45.1378C53.1123 45.5204 57.3486 98.1347 73.9799 96.345C90.6111 94.5554 91.1157 44.7553 72.114 45.1378Z" fill="#F2F2F2"/>
<path fill-rule="evenodd" clip-rule="evenodd" d="M162.579 98.724C167.244 100.569 170.911 99.4995 173.311 98.2626C193.485 87.8639 190.476 44.6431 171.442 41.981C169.275 41.6779 168.033 41.2834 165.857 41.5195C147.345 43.5282 141.251 86.2739 162.579 98.724ZM167.716 44.749C148.714 45.1316 152.95 97.7459 169.581 95.9562C186.213 94.1665 186.717 44.3665 167.716 44.749Z" fill="#F2F2F2"/>
<path d="M95.8965 43.2928H108.957V44.6768C106.625 44.6768 105.226 44.2155 105.226 46.0608C105.226 46.0608 104.879 90.3196 105.226 91.997C105.573 93.6744 106.323 94.5761 108.491 95.4227C111.274 95.7731 113.156 96.3453 115.488 95.4227C118.378 94.2793 117.724 92.787 118.287 88.9641C118.287 88.5028 119.22 88.5028 119.22 88.9641C119.544 88.7653 120.761 97.5823 117.354 99.1133C107.654 98.8365 103.288 98.6928 96.8294 99.1133C96.4459 98.354 96.8294 96.8067 96.8294 96.8067C96.8294 96.8067 99.6529 97.3042 99.6282 95.4227V46.0608C99.6282 44.6768 99.1617 44.6768 95.8965 44.6768V43.2928Z" fill="#F2F2F2"/>
<path d="M123.885 43.2928H136.946V44.6768C134.613 44.6768 133.214 44.2155 133.214 46.0608C133.214 46.0608 132.867 90.3196 133.214 91.997C133.561 93.6744 134.311 94.5761 136.479 95.4227C139.262 95.7731 141.144 96.3453 143.476 95.4227C146.366 94.2793 145.713 92.787 146.275 88.9641C146.275 88.5028 147.208 88.5028 147.208 88.9641C147.532 88.7653 148.75 97.5823 145.342 99.1133C135.643 98.8365 131.276 98.6928 124.818 99.1133C124.434 98.354 124.818 96.8067 124.818 96.8067C124.818 96.8067 127.641 97.3042 127.616 95.4227V46.0608C127.616 44.6768 127.15 44.6768 123.885 44.6768V43.2928Z" fill="#F2F2F2"/>
<path d="M45.0526 117.566C44.5935 117.648 42.7136 116.998 42.2538 113.876C40.3896 115.721 40.4387 122.104 45.5207 121.257C56.5867 119.412 47.6941 106.123 41.3225 106.494C34.518 106.892 31.8148 111.412 32.4597 117.105C33.625 127.391 43.6534 130.483 55.3151 130.483C74.5481 131.618 100.487 126.194 103.361 125.87C106.235 125.547 105.819 128.237 103.827 128.177C103.096 128.036 102.966 127.695 102.894 126.793C100.825 129.932 102.69 131.242 104.76 130.945C111.291 130.007 108.257 122.812 102.894 123.564C97.5315 124.315 79.7487 129.966 70.2418 126.793C60.735 123.62 60.9126 121.257 60.9126 119.873C60.9126 116.611 63.6593 116.732 65.5772 118.489C66.3388 119.187 66.0833 120.213 65.1107 120.796C64.0043 120.984 63.53 120.737 63.2449 118.95C62.5217 120.509 63.2852 122.607 65.5772 122.18C70.5268 121.257 67.4424 114.332 63.7113 114.798C54.616 115.936 57.4311 125.328 66.0437 128.177H55.3151C40.2916 126.464 36.9019 123.22 36.1898 115.721C35.9817 113.529 37.7213 110.202 41.7874 110.185C45.3312 109.732 49.857 116.712 45.0526 117.566Z" fill="#F2F2F2"/>
<path d="M118.286 19.2258C118.286 19.2258 116.887 22.9944 119.686 22.0718C122.485 21.1492 119.958 16.5517 116.421 16.5359C113.587 16.5232 111.29 18.8079 111.29 21.6105C111.29 27.6077 119.375 27.7621 125.75 28.069C132.168 28.3781 136.877 25.517 141.04 23.0555C140.264 23.1942 135.598 21.1473 131.814 21.1492C130.353 21.1499 128.724 22.1881 129.015 23.6039C129.212 24.5634 129.891 25.3011 130.881 25.3011C131.347 25.3011 132.28 25.0281 132.28 24.3785C132.28 22.0718 130.414 23.4558 130.414 23.4558C130.414 23.4558 130.415 22.5331 131.347 22.5332C132.635 22.5332 133.741 23.5673 133.679 24.8398C133.61 26.2906 131.407 26.854 129.948 26.6851C128.323 26.497 127.32 25.2126 127.149 23.6039C126.916 21.4078 129.124 19.0945 131.347 19.3039C141.143 20.2265 144.408 20.6878 153.737 19.3039C160.79 18.2576 164.933 22.0718 171.463 23.6464C172.446 23.8833 173.814 23.5332 173.795 22.5331C173.781 21.7689 173.169 21.167 172.396 21.1492C171.485 21.1282 170.996 22.9944 170.996 22.9944C170.166 22.4944 169.848 19.8325 171.929 19.7652C173.608 19.7109 175.054 20.878 175.195 22.5332C175.299 23.7612 174.028 25.2303 171.929 24.8397C163.665 23.3019 162.134 21.1492 156.07 21.6105C143.918 22.5347 135.509 30.837 126.216 30.837C116.924 30.837 108.957 28.8855 108.957 21.1491C108.957 16.5359 112.279 13.4457 116.421 13.7679C120.026 14.0483 124.114 15.3991 123.417 19.7651C123.031 22.1856 122.22 24.63 119.686 24.8397C117.736 25.0011 115.556 24.0067 115.53 22.0719C115.488 18.8425 118.286 19.2258 118.286 19.2258Z" fill="#F2F2F2"/>
<path d="M363.651 19.2535C363.651 19.2535 365.05 23.0221 362.252 22.0995C359.453 21.1769 361.979 16.5795 365.517 16.5636C368.351 16.5509 370.648 18.8356 370.648 21.6382C370.648 27.6354 362.563 27.7898 356.188 28.0968C349.769 28.4058 345.061 25.5447 340.898 23.0833C341.673 23.2219 346.34 21.175 350.124 21.1769C351.585 21.1776 353.214 22.2158 352.923 23.6317C352.725 24.5911 352.047 25.3288 351.057 25.3288C350.59 25.3288 349.657 25.0558 349.657 24.4062C349.657 22.0995 351.523 23.4835 351.523 23.4835C351.523 23.4835 351.523 22.5608 350.59 22.5609C349.302 22.5609 348.197 23.595 348.258 24.8675C348.328 26.3183 350.531 26.8817 351.99 26.7128C353.614 26.5248 354.617 25.2403 354.788 23.6317C355.022 21.4355 352.813 19.1222 350.59 19.3316C340.794 20.2542 337.529 20.7155 328.2 19.3316C321.148 18.2853 317.005 22.0995 310.475 23.6741C309.492 23.9111 308.124 23.5609 308.142 22.5608C308.156 21.7966 308.769 21.1947 309.542 21.1769C310.452 21.156 310.941 23.0221 310.941 23.0221C311.771 22.5221 312.089 19.8602 310.008 19.7929C308.33 19.7386 306.883 20.9057 306.743 22.5609C306.639 23.7889 307.909 25.258 310.008 24.8674C318.272 23.3296 319.803 21.1769 325.868 21.6382C338.019 22.5624 346.429 30.8647 355.721 30.8647C365.014 30.8647 372.98 28.9132 372.98 21.1768C372.98 16.5636 369.658 13.4734 365.516 13.7956C361.912 14.076 357.824 15.4268 358.52 19.7929C358.906 22.2133 359.717 24.6577 362.252 24.8674C364.202 25.0288 366.382 24.0344 366.407 22.0996C366.45 18.8702 363.651 19.2535 363.651 19.2535Z" fill="#F2F2F2"/>
<path d="M437.67 117.113C438.129 117.194 440.009 116.544 440.469 113.422C442.333 115.267 442.284 121.651 437.202 120.803C426.136 118.958 435.029 105.669 441.4 106.041C448.205 106.438 450.908 110.958 450.263 116.651C449.098 126.937 439.069 130.03 427.408 130.03C408.175 131.164 382.236 125.74 379.362 125.417C376.488 125.093 376.903 127.783 378.896 127.723C379.627 127.582 379.757 127.242 379.828 126.339C381.898 129.478 380.033 130.788 377.963 130.491C371.432 129.554 374.466 122.358 379.828 123.11C385.191 123.862 402.974 129.512 412.481 126.339C421.988 123.166 421.81 120.803 421.81 119.419C421.81 116.157 419.063 116.278 417.145 118.035C416.384 118.733 416.639 119.76 417.612 120.342C418.718 120.531 419.193 120.284 419.478 118.497C420.201 120.056 419.437 122.153 417.145 121.726C412.196 120.803 415.28 113.878 419.011 114.345C428.107 115.482 425.292 124.874 416.679 127.723H427.408C442.431 126.01 445.821 122.766 446.533 115.267C446.741 113.076 445.001 109.748 440.935 109.732C437.392 109.278 432.866 116.258 437.67 117.113Z" fill="#F2F2F2"/>
<path fill-rule="evenodd" clip-rule="evenodd" d="M105.685 113.414C106.122 115.138 106.902 116.484 108.484 116.643C109.223 116.732 110.515 115.479 110.35 114.337C109.884 111.108 106.27 110.01 104.286 110.185C102.302 110.359 99.657 112.166 99.1551 114.798C98.4374 118.562 102.765 120.876 106.619 121.257C111.29 121.718 117.814 121.257 117.814 121.257C117.814 121.257 140.783 113.742 156.064 112.491C164.778 111.778 169.749 111.673 178.454 112.491C187.132 113.307 191.66 116.643 200.378 116.643C202.71 116.643 205.519 116.133 205.509 113.875C205.501 112.214 204.368 110.379 202.71 110.646C201.811 110.791 200.823 111.13 200.844 112.03C200.862 112.794 201.486 113.564 202.244 113.414C202.749 113.314 203.176 112.491 203.176 112.491C203.176 112.491 204.576 114.798 201.311 114.798C199.888 114.798 199.066 113.435 198.978 112.03C198.867 110.25 200.487 109.203 202.244 108.801C205.133 108.139 207.749 111.428 207.374 114.337C207.097 116.489 205.679 117.683 203.643 118.489C201.951 119.158 200.794 118.629 198.978 118.489C196.2 118.274 191.981 117.105 191.981 117.105C197.069 121.1 198.045 124.947 200.378 128.638C202.309 131.693 204.299 132.315 207.374 132.79C209.714 133.151 213.438 132.79 213.438 132.79C213.438 132.79 212.111 133.834 211.106 134.174C209.555 134.698 206.908 134.174 206.908 134.174C206.908 134.174 207.133 135.884 206.908 136.942C206.502 138.849 204.109 141.094 204.109 141.094C204.109 141.094 209.254 140.672 212.506 141.094C222.387 142.377 233.141 144.237 234.429 154.011C234.641 155.619 235.05 156.662 234.429 158.163C233.696 159.935 232.63 161.519 230.698 161.392C228.898 161.273 227.136 159.922 227.432 158.163C227.644 156.906 228.477 155.856 229.765 155.856C231.171 155.856 231.63 157.701 231.63 157.701C231.63 157.701 229.706 156.896 229.298 157.701C228.891 158.507 229.826 159.284 230.698 159.547C232.058 159.957 233.004 158.186 233.03 156.779C233.108 152.553 229.445 148.914 227.432 148.475C225.364 148.024 225.218 148.053 223.701 148.475C222.678 148.759 222.251 149.732 222.301 150.782C222.363 152.054 223.345 153.088 224.634 153.088C225.448 153.088 226.387 152.963 226.499 152.166C226.59 151.522 226.167 151.044 225.566 150.782C224.879 150.481 223.708 151.243 223.708 151.243C223.708 151.243 224.641 148.936 226.499 149.398C228.358 149.859 228.388 150.867 228.365 152.166C228.333 153.967 226.454 154.868 224.634 154.933C222.184 155.022 220.429 152.744 220.435 150.32C220.444 146.916 225.107 146.168 225.107 146.168C225.107 146.168 221.849 144.784 218.577 144.784L213.438 144.323C211.871 144.323 210.647 145.246 210.173 146.63C209.925 147.354 210.801 148.058 211.573 148.014C211.979 147.99 212.303 147.902 212.506 147.552C212.831 146.988 211.573 146.168 211.573 146.168C211.573 146.168 213.763 146.511 213.905 147.552C214.061 148.695 212.736 149.318 211.573 149.398C210.031 149.503 209.015 148.139 208.781 146.63C208.449 144.485 212.979 142.939 212.979 142.939C212.979 142.939 197.119 144.784 189.182 143.4C187.089 143.035 183.318 139.931 183.585 136.48C183.85 133.049 186.645 130.224 190.115 130.483C193.198 130.714 196.261 133.01 195.713 136.019C195.369 137.904 194.383 139.776 192.448 139.71C191.135 139.665 189.889 139.142 189.649 137.864C189.469 136.911 190.582 135.558 190.582 135.558C190.582 135.558 190.921 137.93 191.981 137.864C192.89 137.809 193.279 136.914 193.381 136.019C193.554 134.479 191.682 133.762 190.115 133.712C188.055 133.647 186.04 135.393 186.384 137.403C186.857 140.171 189.593 141.555 192.58 141.555H200.844C202.78 141.555 204.109 139.666 204.109 137.864C204.109 136.48 204.202 136.472 204.109 135.558C203.643 130.945 187.083 127.715 184.058 127.715L171.457 127.715C167.584 127.715 159.103 130.945 159.329 136.48C159.417 138.648 161.334 140.11 163.527 140.171C165.497 140.226 168.022 139.33 167.725 137.403C167.531 136.144 167.349 135.819 165.393 135.096C164.455 134.75 163.112 135.162 163.527 136.48C163.841 137.48 165.571 137.036 165.859 136.942C165.859 136.942 165.393 138.787 163.993 138.787C162.448 138.787 161.404 137.515 161.195 136.019C160.928 134.122 162.135 132.79 164.46 132.328C166.51 131.922 170.021 134.009 170.064 136.942C170.115 140.329 166.777 141.958 163.534 142.016C159.797 142.083 156.537 140.171 156.53 136.019C156.521 130.923 164 127.715 164 127.715C157.929 127.254 155.909 124.622 156.071 120.795C156.222 117.222 159.445 115.721 163.06 115.721C165.866 115.721 168.228 117.31 168.199 119.873C168.173 122.168 167.251 124.025 163.993 124.025C160.735 124.025 159.336 120.796 162.128 119.411C162.128 119.411 162.135 121.718 163.993 121.718C165.4 121.718 165.4 121.257 165.4 119.873C165.4 118.489 164.467 117.566 162.128 117.566C159.336 117.566 158.287 119.116 157.929 121.257C157.468 124.022 160.227 126.331 163.06 126.331C166.333 126.331 166.333 126.331 168.658 126.331C172.511 126.331 176.588 124.947 176.588 124.947C177.061 120.796 170.877 114.337 167.266 114.337C159.809 114.337 148.607 114.798 143.01 117.105C150.256 118.587 157.311 122.976 156.537 129.099C156.071 132.79 154.07 134.974 150.466 135.096C146.73 135.224 143.943 131.867 143.943 128.638C143.943 125.409 145.342 124.486 147.667 124.486C149.47 124.486 150.921 125.594 150.932 127.715C150.939 129.099 148.6 130.022 148.6 130.022C148.6 130.022 149.595 128.98 149.533 128.177C149.454 127.16 149.171 126.793 148.141 126.793C146.741 126.793 145.808 127.715 145.808 129.099C145.808 131.015 148.07 132.79 150.007 132.79C152.339 132.79 153.272 131.406 154.205 129.561C154.205 128.638 154.205 127.715 154.198 126.793C152.866 121.963 147.82 120.558 142.536 119.873C138.345 119.873 136.013 119.873 131.807 119.873C122.952 122.179 111.729 122.915 111.749 128.177C111.757 130.022 113.335 130.944 115.015 130.945C116.888 130.945 117.354 130.483 117.347 129.099C117.343 128.337 116.728 127.715 115.955 127.715C114.555 127.715 113.615 128.638 113.615 128.638C113.615 128.638 113.156 125.409 115.948 125.409C118.287 125.409 119.674 127.184 119.679 129.099C119.686 131.867 118.287 133.251 115.022 133.251C112.056 133.251 109.424 131.406 109.424 128.638C109.424 126.331 111.29 123.563 111.29 123.563C101.961 123.563 96.3621 121.349 96.3633 114.798C96.3641 110.185 100.038 108.064 104.287 107.878C108.328 107.702 113.083 109.895 112.682 113.875C112.426 116.423 110.576 119.347 108.018 118.95C105.604 118.576 103.953 115.734 105.685 113.414ZM179.387 125.409C179.07 119.673 177.054 118.027 172.39 114.337C185.451 113.875 191.515 118.027 196.179 125.87C196.741 126.814 196.806 128.818 195.713 128.638C194.901 128.504 193.853 128.176 192.58 127.778C189.469 126.803 185.015 125.409 179.387 125.409Z" fill="#F2F2F2"/>
<path fill-rule="evenodd" clip-rule="evenodd" d="M377.037 112.961C376.6 114.685 375.821 116.03 374.238 116.19C373.5 116.278 372.207 115.025 372.372 113.883C372.839 110.654 376.452 109.557 378.436 109.731C380.42 109.906 383.066 111.713 383.568 114.345C384.285 118.109 379.958 120.423 376.104 120.803C371.433 121.265 364.909 120.803 364.909 120.803C364.909 120.803 341.94 113.289 326.659 112.038C317.945 111.325 312.973 111.22 304.269 112.038C295.59 112.854 291.062 116.19 282.345 116.19C280.013 116.19 277.204 115.679 277.214 113.422C277.221 111.761 278.355 109.925 280.013 110.193C280.912 110.338 281.9 110.676 281.878 111.577C281.861 112.341 281.237 113.111 280.479 112.961C279.974 112.861 279.546 112.038 279.546 112.038C279.546 112.038 278.147 114.345 281.412 114.345C282.835 114.345 283.656 112.981 283.744 111.577C283.856 109.797 282.236 108.75 280.479 108.348C277.59 107.686 274.974 110.974 275.348 113.883C275.625 116.035 277.043 117.23 279.08 118.035C280.771 118.704 281.928 118.176 283.744 118.035C286.523 117.821 290.741 116.651 290.741 116.651C285.653 120.647 284.678 124.494 282.345 128.185C280.414 131.24 278.424 131.862 275.348 132.336C273.008 132.697 269.284 132.336 269.284 132.336C269.284 132.336 270.611 133.381 271.616 133.72C273.168 134.245 275.815 133.72 275.815 133.72C275.815 133.72 275.589 135.431 275.815 136.488C276.221 138.395 278.613 140.64 278.613 140.64C278.613 140.64 273.468 140.218 270.217 140.64C260.336 141.923 249.582 143.784 248.293 153.557C248.081 155.165 247.673 156.209 248.293 157.709C249.027 159.482 250.093 161.066 252.025 160.939C253.824 160.82 255.587 159.469 255.29 157.709C255.079 156.453 254.246 155.403 252.958 155.403C251.551 155.403 251.092 157.248 251.092 157.248C251.092 157.248 253.017 156.442 253.424 157.248C253.832 158.054 252.896 158.83 252.025 159.093C250.664 159.504 249.719 157.732 249.693 156.325C249.615 152.1 253.278 148.46 255.29 148.022C257.359 147.571 257.504 147.599 259.022 148.022C260.045 148.306 260.472 149.279 260.421 150.328C260.36 151.601 259.377 152.635 258.089 152.635C257.274 152.635 256.336 152.51 256.223 151.712C256.132 151.069 256.555 150.591 257.156 150.328C257.843 150.028 259.015 150.789 259.015 150.789C259.015 150.789 258.082 148.483 256.223 148.944C254.365 149.406 254.334 150.413 254.357 151.712C254.389 153.513 256.269 154.414 258.089 154.48C260.538 154.569 262.294 152.291 262.287 149.867C262.278 146.463 257.615 145.715 257.615 145.715C257.615 145.715 260.874 144.331 264.146 144.331L269.284 143.87C270.851 143.87 272.076 144.792 272.549 146.176C272.797 146.9 271.922 147.605 271.15 147.56C270.743 147.537 270.419 147.449 270.217 147.099C269.891 146.535 271.15 145.715 271.15 145.715C271.15 145.715 268.96 146.058 268.818 147.099C268.661 148.242 269.986 148.864 271.15 148.944C272.692 149.05 273.708 147.685 273.942 146.176C274.274 144.032 269.744 142.486 269.744 142.486C269.744 142.486 285.603 144.331 293.54 142.947C295.633 142.582 299.405 139.478 299.138 136.027C298.872 132.595 296.078 129.77 292.607 130.03C289.525 130.26 286.461 132.557 287.01 135.566C287.353 137.45 288.34 139.322 290.275 139.256C291.588 139.211 292.833 138.688 293.074 137.411C293.253 136.457 292.141 135.104 292.141 135.104C292.141 135.104 291.802 137.476 290.741 137.411C289.832 137.355 289.443 136.461 289.342 135.566C289.168 134.026 291.041 133.309 292.607 133.259C294.667 133.193 296.683 134.94 296.339 136.95C295.865 139.718 293.13 141.102 290.142 141.102H281.879C279.942 141.102 278.613 139.213 278.613 137.411C278.613 136.027 278.521 136.018 278.613 135.104C279.08 130.491 295.639 127.262 298.664 127.262L311.266 127.262C315.139 127.262 323.62 130.491 323.394 136.027C323.306 138.195 321.388 139.657 319.196 139.718C317.226 139.772 314.7 138.876 314.998 136.95C315.192 135.69 315.374 135.365 317.33 134.643C318.267 134.297 319.61 134.709 319.196 136.027C318.881 137.027 317.152 136.583 316.863 136.488C316.863 136.488 317.33 138.334 318.729 138.334C320.275 138.334 321.318 137.061 321.528 135.566C321.794 133.669 320.588 132.336 318.263 131.875C316.212 131.468 312.702 133.556 312.658 136.488C312.608 139.876 315.946 141.505 319.189 141.563C322.926 141.63 326.186 139.718 326.193 135.566C326.201 130.47 318.722 127.262 318.722 127.262C324.793 126.801 326.814 124.169 326.652 120.342C326.501 116.769 323.278 115.267 319.662 115.267C316.856 115.267 314.495 116.857 314.524 119.419C314.55 121.714 315.471 123.571 318.729 123.571C321.987 123.571 323.387 120.342 320.595 118.958C320.595 118.958 320.588 121.265 318.729 121.265C317.323 121.264 317.323 120.803 317.323 119.42C317.323 118.036 318.256 117.113 320.595 117.113C323.387 117.113 324.436 118.663 324.793 120.803C325.255 123.568 322.496 125.878 319.662 125.878C316.39 125.878 316.39 125.878 314.065 125.878C310.211 125.878 306.135 124.494 306.135 124.494C305.661 120.342 311.845 113.883 315.457 113.883C322.913 113.883 334.115 114.345 339.713 116.652C332.467 118.134 325.412 122.522 326.186 128.646C326.652 132.337 328.652 134.52 332.257 134.643C335.992 134.77 338.78 131.414 338.78 128.185C338.78 124.955 337.381 124.033 335.056 124.033C333.252 124.032 331.801 125.141 331.79 127.262C331.783 128.646 334.123 129.569 334.123 129.569C334.123 129.569 333.127 128.527 333.19 127.723C333.269 126.707 333.551 126.339 334.582 126.339C335.981 126.339 336.914 127.262 336.914 128.646C336.914 130.561 334.653 132.337 332.716 132.337C330.384 132.337 329.451 130.953 328.518 129.107C328.518 128.185 328.518 127.262 328.525 126.339C329.856 121.509 334.903 120.104 340.187 119.419C344.378 119.419 346.71 119.42 350.915 119.419C359.771 121.726 370.994 122.462 370.973 127.723C370.966 129.569 369.387 130.491 367.708 130.491C365.835 130.491 365.369 130.03 365.376 128.646C365.38 127.884 365.995 127.262 366.768 127.262C368.167 127.262 369.107 128.185 369.107 128.185C369.107 128.185 369.567 124.955 366.775 124.955C364.436 124.955 363.048 126.731 363.043 128.646C363.036 131.414 364.436 132.798 367.701 132.798C370.666 132.798 373.298 130.953 373.298 128.185C373.298 125.878 371.433 123.11 371.433 123.11C380.762 123.11 386.361 120.895 386.359 114.345C386.359 109.732 382.684 107.61 378.436 107.425C374.395 107.249 369.64 109.442 370.04 113.422C370.297 115.97 372.146 118.893 374.704 118.497C377.119 118.122 378.77 115.281 377.037 112.961ZM303.336 124.955C303.653 119.219 305.668 117.574 310.333 113.883C297.272 113.422 291.208 117.574 286.543 125.417C285.982 126.361 285.917 128.365 287.01 128.185C287.822 128.051 288.87 127.723 290.142 127.324C293.254 126.35 297.707 124.955 303.336 124.955Z" fill="#F2F2F2"/>
<path d="M154.672 28.5303C154.672 28.5303 157.834 26.4094 157.471 28.9916C157.107 31.5739 152.887 30.2049 152.806 27.6076C152.725 25.0104 156.352 24.1666 158.87 24.8397C176.128 29.4529 180.796 33.1436 196.187 33.1436L216.247 33.1435C223.244 33.1435 228.841 28.5303 232.573 28.9916C233.596 29.118 234.117 29.828 233.971 30.8369C233.862 31.5936 233.506 32.2209 232.573 31.7595C231.321 31.1406 232.573 30.3756 232.573 30.3756C232.573 30.3756 232.107 29.4529 231.174 30.3756C230.022 31.5149 231.099 33.5722 232.573 34.0662C234.281 34.6384 235.701 32.6149 235.837 30.8369C235.974 29.0404 233.038 27.1463 233.038 27.1463C233.038 27.1463 234.322 25.2843 234.437 23.917C234.715 20.6163 231.721 17.8245 228.373 17.9198C225.529 18.0007 222.611 19.7236 222.776 22.5331C222.903 24.6988 224.315 26.7646 226.507 26.685C228.073 26.6281 229.773 25.9281 229.773 24.3784C229.773 20.6878 226.507 22.5331 226.507 22.5331C226.507 22.5331 228.331 23.5814 227.907 24.3784C227.557 25.0355 226.763 25.0431 226.041 24.8397C225.165 24.593 224.743 23.8896 224.642 22.9944C224.468 21.4542 226.341 20.7404 227.907 20.6878C229.842 20.6227 230.748 22.2162 231.639 23.917C234.073 28.568 219.511 29.9143 219.511 29.9143L209.715 29.4529C209.715 29.4529 198.998 24.0143 200.384 18.8424C201.047 16.3673 201.928 14.8332 204.117 14.6905C206.19 14.5554 208.934 15.9588 208.315 17.9198C208.009 18.8927 207.413 20.1265 206.45 19.7651C205.835 19.5347 205.388 19.0181 205.517 18.3811C205.618 17.8815 206.45 17.4585 206.45 17.4585C206.45 17.4585 203.649 15.6132 203.183 18.8425C202.925 20.626 204.389 22.2779 206.45 22.5331C208.751 22.818 210.646 20.2264 210.646 17.9198C210.646 14.4779 208.052 12.2022 204.584 11.9226C200.467 11.5907 197.585 14.2292 197.119 19.7651C196.686 24.9 205.517 30.3756 205.517 30.3756H192.922C185.457 30.3756 179.859 28.5303 177.995 22.9944C177.302 20.9366 179.708 18.5372 181.725 18.8424C183.254 19.0737 184.476 20.0825 184.526 21.6104C184.568 22.9093 183.809 24.1898 182.658 24.3783C181.112 24.6316 180.792 20.6877 180.792 20.6877C180.792 20.6877 179.799 26.4904 183.126 26.685C187.316 26.9301 187.113 21.7014 186.856 20.6877C186.39 18.8424 184.526 16.9971 181.725 16.9971C175.59 16.9971 173.865 24.4392 177.062 27.6077C177.062 27.6077 164.933 22.9944 157.471 22.5331C153.978 22.3172 149.857 24.6625 150.474 28.069C150.93 30.5894 153.027 32.4533 155.605 32.2209C157.79 32.0241 160.365 30.6273 159.803 28.5303C159.402 27.0322 158.046 25.8017 156.538 26.2237C155.416 26.5378 154.672 28.5303 154.672 28.5303Z" fill="#F2F2F2"/>
<path d="M327.265 28.5581C327.265 28.5581 324.103 26.4372 324.467 29.0195C324.83 31.6017 329.05 30.2327 329.131 27.6355C329.213 25.0383 325.585 24.1944 323.067 24.8675C305.81 29.4807 301.142 33.1714 285.75 33.1714L265.691 33.1714C258.694 33.1714 253.096 28.5581 249.364 29.0194C248.342 29.1458 247.821 29.8559 247.967 30.8648C248.076 31.6214 248.431 32.2487 249.364 31.7874C250.616 31.1684 249.364 30.4034 249.364 30.4034C249.364 30.4034 249.831 29.4807 250.764 30.4035C251.916 31.5427 250.838 33.6001 249.364 34.094C247.657 34.6662 246.236 32.6427 246.101 30.8648C245.964 29.0683 248.9 27.1741 248.9 27.1741C248.9 27.1741 247.615 25.3122 247.5 23.9449C247.222 20.6441 250.216 17.8524 253.564 17.9476C256.408 18.0286 259.327 19.7515 259.162 22.5609C259.034 24.7266 257.622 26.7924 255.43 26.7128C253.864 26.656 252.165 25.956 252.165 24.4062C252.165 20.7156 255.43 22.5609 255.43 22.5609C255.43 22.5609 253.606 23.6092 254.031 24.4062C254.381 25.0634 255.174 25.071 255.896 24.8675C256.772 24.6208 257.195 23.9174 257.296 23.0222C257.47 21.482 255.597 20.7682 254.031 20.7156C252.095 20.6505 251.189 22.2441 250.299 23.9449C247.865 28.5958 262.427 29.9421 262.427 29.9421L272.223 29.4808C272.223 29.4808 282.94 24.0421 281.554 18.8703C280.89 16.3952 280.009 14.861 277.82 14.7183C275.748 14.5833 273.004 15.9866 273.622 17.9476C273.929 18.9206 274.524 20.1544 275.488 19.7929C276.102 19.5626 276.55 19.0459 276.421 18.409C276.32 17.9093 275.488 17.4863 275.488 17.4863C275.488 17.4863 278.288 15.641 278.755 18.8703C279.012 20.6538 277.549 22.3057 275.488 22.5609C273.187 22.8458 271.291 20.2543 271.291 17.9476C271.291 14.5057 273.885 12.2301 277.354 11.9504C281.47 11.6186 284.352 14.2571 284.819 19.7929C285.252 24.9278 276.421 30.4035 276.421 30.4035H289.015C296.48 30.4034 302.078 28.5581 303.942 23.0222C304.635 20.9644 302.229 18.5651 300.212 18.8703C298.684 19.1015 297.461 20.1104 297.412 21.6383C297.37 22.9371 298.129 24.2176 299.279 24.4062C300.825 24.6595 301.145 20.7156 301.145 20.7156C301.145 20.7156 302.138 26.5182 298.811 26.7129C294.622 26.9579 294.825 21.7293 295.081 20.7156C295.548 18.8703 297.412 17.0249 300.212 17.0249C306.348 17.0249 308.073 24.4671 304.875 27.6355C304.875 27.6355 317.005 23.0222 324.467 22.5609C327.959 22.345 332.081 24.6903 331.464 28.0968C331.007 30.6173 328.911 32.4811 326.332 32.2488C324.148 32.0519 321.572 30.6551 322.134 28.5581C322.536 27.0601 323.892 25.8295 325.4 26.2515C326.522 26.5657 327.265 28.5581 327.265 28.5581Z" fill="#F2F2F2"/>
<path d="M224.164 141.094C226.246 140.322 227.43 138.326 227.43 138.326C227.43 138.326 222.494 139.542 218.339 139.542C216.284 139.542 213.437 139.436 213.437 137.403C213.437 135.558 218.339 132.79 218.339 132.79C218.339 132.79 211.194 134.279 210.176 137.865C209.437 140.471 219.197 142.936 224.164 141.094Z" fill="#F2F2F2"/>
<path d="M258.559 140.64C256.477 139.868 255.293 137.872 255.293 137.872C255.293 137.872 260.229 139.089 264.383 139.089C266.439 139.089 269.286 138.982 269.286 136.95C269.286 135.104 264.383 132.336 264.383 132.336C264.383 132.336 271.528 133.825 272.546 137.411C273.286 140.017 263.526 142.482 258.559 140.64Z" fill="#F2F2F2"/>
<path d="M218.583 138.787C219.489 138.716 220.297 138.291 220.443 137.403C220.57 136.635 220.297 135.637 219.51 135.637C218.328 135.637 218.577 136.942 218.577 136.942C218.868 136.484 219.753 135.952 219.51 137.403C219.358 138.315 217.382 137.833 217.65 136.481C217.729 136.086 217.86 135.871 218.117 135.558C219.036 134.44 221.174 135.574 222.307 136.481C223.362 137.325 225.065 137.822 226.039 137.403C227.013 136.985 227.555 136.142 227.446 135.097C227.352 134.201 226.94 133.428 226.047 133.252C223.709 132.79 224.642 135.097 224.642 135.097C224.642 135.097 224.936 134.047 225.58 134.174C226.085 134.274 226.507 134.635 226.513 135.097C226.521 135.746 226.507 136.481 225.58 136.481C224.111 136.481 223.694 135.135 222.315 134.636C220.843 134.103 219.509 133.713 217.643 134.635C216.828 135.038 216.358 135.468 216.244 136.481C216.102 137.747 217.298 138.889 218.583 138.787Z" fill="#F2F2F2"/>
<path d="M264.138 138.334C263.231 138.262 262.423 137.837 262.277 136.95C262.151 136.182 262.423 135.183 263.21 135.183C264.393 135.183 264.143 136.488 264.143 136.488C263.853 136.031 262.968 135.498 263.21 136.95C263.362 137.862 265.339 137.379 265.07 136.027C264.992 135.632 264.861 135.417 264.604 135.104C263.685 133.986 261.546 135.121 260.413 136.027C259.358 136.871 257.656 137.369 256.682 136.95C255.707 136.531 255.165 135.688 255.275 134.643C255.368 133.747 255.781 132.974 256.674 132.798C259.012 132.336 258.079 134.643 258.079 134.643C258.079 134.643 257.785 133.593 257.141 133.72C256.635 133.82 256.213 134.182 256.208 134.643C256.2 135.293 256.213 136.027 257.141 136.027C258.609 136.027 259.027 134.681 260.406 134.182C261.877 133.649 263.212 133.259 265.078 134.182C265.893 134.585 266.363 135.014 266.477 136.027C266.619 137.293 265.423 138.435 264.138 138.334Z" fill="#F2F2F2"/>
<path d="M215.303 131.73C219.29 132.341 225.573 130.719 225.573 130.719C225.573 130.719 221.371 131.539 214.835 129.708C212.018 128.919 205.043 126.588 205.498 123.138C205.911 120.006 213.901 118.084 213.901 118.084C213.901 118.084 203.63 117.073 201.488 123.594C199.94 128.303 209.222 130.796 215.303 131.73Z" fill="#F2F2F2"/>
<path d="M267.418 131.276C263.431 131.888 257.148 130.265 257.148 130.265C257.148 130.265 261.349 131.085 267.885 129.254C270.702 128.465 277.678 126.135 277.223 122.684C276.809 119.552 268.819 117.631 268.819 117.631C268.819 117.631 279.091 116.62 281.233 123.14C282.78 127.849 273.499 130.343 267.418 131.276Z" fill="#F2F2F2"/>
<path d="M210.603 126.846C212.117 127.179 213.596 127.03 214.151 126.006C214.631 125.119 214.536 123.764 213.243 123.4C211.3 122.851 211.248 124.573 211.248 124.573C211.888 124.144 213.53 123.899 212.616 125.573C212.043 126.625 208.968 125.115 209.889 123.576C210.158 123.126 210.449 122.922 210.982 122.656C212.889 121.706 216 124.094 217.54 125.734C218.974 127.262 221.596 128.664 223.345 128.6C225.094 128.536 226.284 127.75 226.475 126.414C226.639 125.268 226.235 124.125 224.83 123.494C221.152 121.843 221.867 125.114 221.867 125.114C221.867 125.114 222.724 123.958 223.737 124.413C224.531 124.771 225.097 125.411 224.943 125.981C224.726 126.784 224.442 127.682 222.919 127.252C220.505 126.571 220.297 124.721 218.208 123.467C215.979 122.13 213.923 121.031 210.53 121.301C209.049 121.419 208.123 121.73 207.576 122.924C206.893 124.416 208.455 126.375 210.603 126.846Z" fill="#F2F2F2"/>
<path d="M272.12 126.393C270.605 126.725 269.127 126.576 268.572 125.552C268.092 124.665 268.186 123.311 269.479 122.946C271.422 122.398 271.475 124.119 271.475 124.119C270.835 123.691 269.193 123.445 270.106 125.119C270.68 126.171 273.755 124.662 272.834 123.122C272.565 122.672 272.274 122.469 271.741 122.203C269.834 121.252 266.723 123.64 265.183 125.281C263.749 126.808 261.127 128.21 259.378 128.146C257.628 128.082 256.439 127.297 256.247 125.96C256.083 124.814 256.487 123.672 257.893 123.041C261.571 121.389 260.855 124.66 260.855 124.66C260.855 124.66 259.999 123.505 258.986 123.96C258.191 124.317 257.625 124.957 257.78 125.528C257.997 126.331 258.28 127.228 259.804 126.798C262.217 126.118 262.425 124.268 264.514 123.014C266.743 121.676 268.799 120.577 272.193 120.848C273.674 120.966 274.6 121.276 275.146 122.47C275.829 123.962 274.268 125.921 272.12 126.393Z" fill="#F2F2F2"/>
<path d="M215.938 117.185C217.122 117.52 218.278 117.37 218.711 116.34C219.087 115.449 219.013 114.087 218.002 113.72C216.483 113.169 216.442 114.9 216.442 114.9C216.942 114.469 218.226 114.222 217.512 115.905C217.063 116.962 214.66 115.445 215.38 113.897C215.59 113.445 215.818 113.24 216.234 112.973C217.725 112.017 220.157 114.418 221.36 116.068C222.481 117.603 224.531 119.012 225.898 118.948C227.266 118.884 228.196 118.094 228.345 116.75C228.474 115.598 228.157 114.45 227.059 113.815C224.184 112.155 224.743 115.443 224.743 115.443C224.743 115.443 225.413 114.282 226.205 114.739C226.826 115.099 227.268 115.742 227.147 116.316C226.977 117.123 226.756 118.025 225.565 117.593C223.679 116.909 223.516 115.049 221.883 113.788C220.141 112.443 218.534 111.339 215.881 111.611C214.723 111.729 213.999 112.041 213.572 113.241C213.038 114.741 214.259 116.711 215.938 117.185Z" fill="#F2F2F2"/>
<path d="M266.783 116.732C265.599 117.066 264.443 116.916 264.01 115.886C263.634 114.995 263.708 113.633 264.719 113.266C266.238 112.715 266.278 114.446 266.278 114.446C265.778 114.015 264.495 113.768 265.209 115.452C265.657 116.509 268.061 114.991 267.341 113.443C267.131 112.991 266.903 112.786 266.486 112.519C264.996 111.564 262.564 113.964 261.36 115.614C260.239 117.149 258.19 118.559 256.822 118.494C255.455 118.43 254.525 117.64 254.375 116.297C254.247 115.145 254.563 113.996 255.662 113.362C258.537 111.701 257.978 114.99 257.978 114.99C257.978 114.99 257.308 113.828 256.516 114.286C255.895 114.645 255.453 115.288 255.573 115.862C255.743 116.669 255.965 117.571 257.156 117.139C259.042 116.455 259.205 114.595 260.838 113.334C262.58 111.989 264.187 110.885 266.84 111.157C267.998 111.275 268.721 111.588 269.149 112.788C269.683 114.288 268.462 116.258 266.783 116.732Z" fill="#F2F2F2"/>
<path d="M219.975 119.873C222.031 120.627 226.039 119.873 226.039 119.873C226.039 119.873 223.622 120.603 221.378 120.795C216.691 121.198 206.92 113.236 208.779 111.108C211.859 107.582 220.232 107.788 223.241 108.801C228.178 110.463 229.77 112.953 229.77 112.953C229.77 112.953 223.692 110.751 220.444 110.185C217.101 109.602 211.699 109.232 211.113 112.03C210.528 114.829 215.732 118.318 219.975 119.873Z" fill="#F2F2F2"/>
<path d="M262.746 119.419C260.689 120.173 256.682 119.419 256.682 119.419C256.682 119.419 259.099 120.149 261.343 120.342C266.03 120.744 275.801 112.783 273.942 110.654C270.862 107.128 262.489 107.334 259.479 108.347C254.542 110.01 252.95 112.5 252.95 112.5C252.95 112.5 259.029 110.298 262.277 109.731C265.62 109.148 271.022 108.778 271.607 111.577C272.193 114.375 266.988 117.865 262.746 119.419Z" fill="#F2F2F2"/>
<path fill-rule="evenodd" clip-rule="evenodd" d="M241.433 147.553C249.162 147.553 255.427 138.258 255.427 126.793C255.427 115.328 249.162 106.033 241.433 106.033C233.705 106.033 227.439 115.328 227.439 126.793C227.439 138.258 233.705 147.553 241.433 147.553ZM241.433 145.707C245.081 145.707 248.352 143.258 250.575 139.381C250.927 138.767 251.253 138.117 251.55 137.435C252.612 134.998 253.303 132.155 253.502 129.092C253.532 128.638 253.55 128.179 253.558 127.716C253.56 127.562 253.561 127.408 253.561 127.254C253.561 124.734 253.229 122.333 252.628 120.144C252.473 119.578 252.299 119.025 252.109 118.489C250.058 112.72 246.047 108.801 241.433 108.801C236.944 108.801 233.025 112.512 230.928 118.028C230.67 118.707 230.439 119.414 230.238 120.144C229.637 122.333 229.305 124.734 229.305 127.254C229.305 127.408 229.307 127.562 229.309 127.716C229.317 128.181 229.335 128.643 229.365 129.1C229.564 132.146 230.25 134.975 231.303 137.403C231.628 138.153 231.988 138.864 232.379 139.531C234.6 143.321 237.834 145.707 241.433 145.707Z" fill="#F2F2F2"/>
<path d="M230.238 120.144C238.832 117.994 243.809 117.799 252.628 120.144C252.473 119.578 252.299 119.025 252.109 118.489C243.485 116.52 238.635 116.182 230.928 118.028C230.67 118.707 230.439 119.414 230.238 120.144Z" fill="#F2F2F2"/>
<path d="M253.558 127.716C244.14 126.68 238.808 126.843 229.309 127.716C229.317 128.181 229.335 128.643 229.365 129.1C238.717 128.484 243.946 128.231 253.502 129.092C253.532 128.638 253.55 128.179 253.558 127.716Z" fill="#F2F2F2"/>
<path d="M251.55 137.435C243.329 139.235 238.942 138.879 231.303 137.403C231.628 138.153 231.988 138.864 232.379 139.531C239.517 140.316 243.518 140.647 250.575 139.381C250.927 138.767 251.253 138.117 251.55 137.435Z" fill="#F2F2F2"/>
<path fill-rule="evenodd" clip-rule="evenodd" d="M241.434 161.392C244.01 161.392 246.099 158.501 246.099 154.934C246.099 151.367 244.01 148.475 241.434 148.475C238.858 148.475 236.77 151.367 236.77 154.934C236.77 158.501 238.858 161.392 241.434 161.392ZM241.434 160.818C242.65 160.818 243.74 160.056 244.481 158.85C244.599 158.659 244.707 158.457 244.806 158.245C244.995 157.841 245.149 157.401 245.261 156.933C245.302 156.763 245.337 156.59 245.367 156.413C245.409 156.164 245.439 155.909 245.457 155.649C245.467 155.508 245.473 155.365 245.476 155.221C245.476 155.173 245.477 155.125 245.477 155.077C245.477 154.502 245.417 153.947 245.306 153.423C245.266 153.233 245.219 153.047 245.166 152.865C245.114 152.689 245.056 152.517 244.993 152.35C244.309 150.555 242.972 149.336 241.434 149.336C239.938 149.336 238.631 150.491 237.932 152.207C237.913 152.254 237.894 152.302 237.876 152.35C237.812 152.517 237.754 152.689 237.702 152.865C237.649 153.047 237.602 153.233 237.562 153.423C237.451 153.947 237.391 154.502 237.391 155.077C237.391 155.125 237.392 155.173 237.393 155.221C237.395 155.366 237.402 155.509 237.411 155.651C237.427 155.878 237.452 156.1 237.486 156.318C237.519 156.527 237.559 156.733 237.607 156.933C237.719 157.397 237.871 157.833 238.057 158.235C238.166 158.468 238.286 158.689 238.416 158.897C239.156 160.076 240.234 160.818 241.434 160.818Z" fill="#F2F2F2"/>
<path d="M245.166 152.865C245.114 152.689 245.056 152.517 244.993 152.35C242.207 151.957 240.664 151.979 237.876 152.35C237.812 152.517 237.754 152.689 237.702 152.865C237.649 153.047 237.602 153.233 237.562 153.423C240.659 152.857 242.393 152.834 245.306 153.423C245.266 153.233 245.219 153.047 245.166 152.865Z" fill="#F2F2F2"/>
<path d="M245.367 156.413C242.261 156.984 240.546 156.813 237.486 156.318C237.519 156.527 237.559 156.733 237.607 156.933C240.637 157.542 242.333 157.94 245.261 156.933C245.302 156.763 245.337 156.59 245.367 156.413Z" fill="#F2F2F2"/>
<path fill-rule="evenodd" clip-rule="evenodd" d="M240.966 32.221C244.315 32.221 247.03 28.5033 247.03 23.9172C247.03 19.3311 244.315 15.6133 240.966 15.6133C237.617 15.6133 234.902 19.3311 234.902 23.9172C234.902 28.5033 237.617 32.221 240.966 32.221ZM240.966 31.4829C242.547 31.4829 243.964 30.5031 244.928 28.9523C245.08 28.7067 245.222 28.4468 245.35 28.1742C245.595 27.6546 245.795 27.0889 245.941 26.4883C245.994 26.2698 246.04 26.0466 246.079 25.8193C246.133 25.4994 246.173 25.1715 246.196 24.8369C246.209 24.6552 246.217 24.4716 246.22 24.2862C246.221 24.2249 246.222 24.1634 246.222 24.1017C246.222 23.3622 246.144 22.6481 246 21.9745C245.948 21.73 245.887 21.4908 245.818 21.2578C245.75 21.0311 245.675 20.8101 245.592 20.5956C244.704 18.288 242.965 16.7205 240.966 16.7205C239.021 16.7205 237.323 18.2048 236.414 20.4111C236.389 20.472 236.364 20.5336 236.34 20.5956C236.258 20.8101 236.183 21.0311 236.115 21.2578C236.046 21.4908 235.985 21.73 235.932 21.9745C235.788 22.6481 235.711 23.3622 235.711 24.1017C235.711 24.1634 235.711 24.2249 235.712 24.2862C235.716 24.4725 235.724 24.6572 235.737 24.8398C235.757 25.1307 235.79 25.4166 235.834 25.6966C235.876 25.9663 235.929 26.2305 235.992 26.4883C236.137 27.084 236.334 27.6453 236.576 28.1614C236.717 28.4611 236.873 28.7455 237.043 29.0126C238.005 30.5284 239.406 31.4829 240.966 31.4829Z" fill="#F2F2F2"/>
<path d="M245.818 21.2578C245.75 21.0311 245.675 20.8101 245.592 20.5956C241.971 20.0897 239.965 20.118 236.34 20.5956C236.258 20.8101 236.183 21.0311 236.115 21.2578C236.046 21.4908 235.985 21.73 235.932 21.9745C239.958 21.2471 242.213 21.2181 246 21.9745C245.948 21.73 245.887 21.4908 245.818 21.2578Z" fill="#F2F2F2"/>
<path d="M246.079 25.8193C242.041 26.5539 239.812 26.3329 235.834 25.6966C235.876 25.9663 235.929 26.2305 235.992 26.4883C239.93 27.271 242.134 27.783 245.941 26.4883C245.994 26.2698 246.04 26.0466 246.079 25.8193Z" fill="#F2F2F2"/>
<path d="M232.57 163.699C232.57 163.699 234.147 162.289 235.369 162.315C237.305 162.355 239.228 164.182 238.634 166.005C238.318 166.975 237.796 167.933 236.768 167.851C236.114 167.798 235.551 167.552 235.369 166.928C235.21 166.381 235.309 165.774 235.836 165.544C236.436 165.282 237.235 166.467 237.235 166.467C237.235 166.467 237.199 164.777 236.302 164.621C235.153 164.423 233.794 164.628 233.97 166.928C234.277 170.962 240.245 169.619 240.967 177.539L241.9 177.539C242.621 169.619 248.589 170.962 248.897 166.928C249.072 164.628 247.713 164.423 246.564 164.621C245.667 164.777 245.631 166.467 245.631 166.467C245.631 166.467 246.43 165.282 247.031 165.544C247.558 165.774 247.657 166.381 247.497 166.928C247.315 167.552 246.752 167.798 246.098 167.851C245.071 167.933 244.548 166.975 244.232 166.005C243.638 164.182 245.561 162.355 247.497 162.315C248.719 162.289 250.296 163.699 250.296 163.699C250.296 163.699 249.766 159.836 246.564 160.469C244.232 160.931 242.469 163.432 242.832 166.005C243.035 167.444 244.698 169.235 244.698 169.235C244.698 169.235 241.9 171.08 241.9 173.387L240.967 173.387C240.967 171.08 238.168 169.235 238.168 169.235C238.168 169.235 239.831 167.444 240.034 166.005C240.397 163.432 238.634 160.931 236.302 160.469C233.1 159.836 232.57 163.699 232.57 163.699Z" fill="#F2F2F2"/>
</g>
<defs>
<filter id="filter0_dd" x="0" y="0" width="483" height="191" filterUnits="userSpaceOnUse" color-interpolation-filters="sRGB">
<feFlood flood-opacity="0" result="BackgroundImageFix"/>
<feColorMatrix in="SourceAlpha" type="matrix" values="0 0 0 0 0 0 0 0 0 0 0 0 0 0 0 0 0 0 127 0"/>
<feOffset dx="-1" dy="-1"/>
<feGaussianBlur stdDeviation="2.5"/>
<feColorMatrix type="matrix" values="0 0 0 0 0.156863 0 0 0 0 0.156863 0 0 0 0 0.156863 0 0 0 0.4 0"/>
<feBlend mode="normal" in2="BackgroundImageFix" result="effect1_dropShadow"/>
<feColorMatrix in="SourceAlpha" type="matrix" values="0 0 0 0 0 0 0 0 0 0 0 0 0 0 0 0 0 0 127 0"/>
<feOffset dx="1" dy="1"/>
<feGaussianBlur stdDeviation="6"/>
<feColorMatrix type="matrix" values="0 0 0 0 0.156863 0 0 0 0 0.156863 0 0 0 0 0.156863 0 0 0 0.4 0"/>
<feBlend mode="normal" in2="effect1_dropShadow" result="effect2_dropShadow"/>
<feBlend mode="normal" in="SourceGraphic" in2="effect2_dropShadow" result="shape"/>
</filter>
</defs>
</svg>
